<svg id="Dart" xmlns="http://www.w3.org/2000/svg" viewBox="0 0 256 256"><defs><style>.cls-1{fill:#2a5183;}.cls-2{fill:#00d2b8;}.cls-3{fill:#55ddca;}.cls-4{fill:#0081c6;}.cls-5{fill:#0075c9;}.cls-6{fill:#00a4e4;}</style></defs><title>dart</title><rect class="cls-1" y="0.5" width="256" height="256"/><path class="cls-2" d="M99.49,99.57l-8.21-8.21,0,59.35,0.1,2.77a19.57,19.57,0,0,0,.69,4.3l65.05,22.94,16.26-7.2v0Z"/><path class="cls-3" d="M92.1,157.78h0a0.65,0.65,0,0,1,0-.08A0.21,0.21,0,0,0,92.1,157.78Zm81.32,15.71,0,0-16.26,7.2-65-22.93c1.24,4.77,4,10.13,7,13.06L120.28,192l47.2,0.06,5.93-18.52v0Z"/><path class="cls-4" d="M91.28,91.36L66,129.55c-2.1,2.24-1.06,6.87,2.33,10.28l14.6,14.72,9.18,3.23a19.57,19.57,0,0,1-.69-4.3l-0.1-2.77,0-59.35h0Z"/><path class="cls-5" d="M157.68,92.12a20.34,20.34,0,0,0-4.32-.67l-2.93-.1H91.28l82.15,82.14h0l7.21-16.28Z"/><path class="cls-6" d="M157.61,92.11l0.08,0h0Zm13.12,7c-3-3-8.27-5.74-13-7l23,65.09-7.21,16.28h0l17.63-5.63,0-48.34Z"/><path class="cls-2" d="M154.47,83L139.75,68.39c-3.4-3.37-8-4.42-10.27-2.32L91.28,91.36h59.16l2.93,0.1a20.34,20.34,0,0,1,4.32.67ZM91.28,91.36"/></svg>