<svg xmlns="http://www.w3.org/2000/svg" xml:space="preserve" viewBox="0 0 1080 1080"><path fill="#01579B" d="M225.6 852.14 44.84 671.38c-21.41-22.01-34.76-53.08-34.76-83.43 0-14.05 7.94-36.03 13.9-48.67l166.86-347.62 34.76 660.48z"/><path fill="#40C4FF" d="M844.37 226.42 663.61 45.66c-15.79-15.85-48.67-34.76-76.48-34.76-23.9 0-47.36 4.78-62.57 13.9L190.84 191.66l653.53 34.76zm-403.24 841.24h438V879.95L552.37 775.66 253.41 879.95z"/><path fill="#29B6F6" d="M190.84 754.8c0 55.77 6.99 69.45 34.76 97.33l27.81 27.81h625.72L573.22 532.33 190.84 191.66V754.8z"/><path fill="#01579B" d="M747.03 191.66H190.84l688.29 688.29h187.71V448.9L844.37 226.42c-31.25-31.37-59-34.76-97.34-34.76z"/><path fill="#FFF" d="M232.56 859.09c-27.81-27.92-34.76-55.43-34.76-104.29V198.61l-6.95-6.95V754.8c-.01 48.86-.01 62.41 41.71 104.29l20.86 20.86-20.86-20.86z" opacity=".2"/><path fill="#263238" d="M1059.89 441.95V873H872.18l6.95 6.95h187.72V448.9z" opacity=".2"/><path fill="#FFF" d="M844.37 226.42c-34.46-34.46-62.73-34.76-104.29-34.76H190.84l6.95 6.95h542.29c20.78 0 73.12-3.47 104.29 27.81z" opacity=".2"/><radialGradient id="a" cx="538.463" cy="539.28" r="528.383" gradientUnits="userSpaceOnUse"><stop offset="0" stop-color="#fff" stop-opacity=".1"/><stop offset="1" stop-color="#fff" stop-opacity="0"/></radialGradient><path fill="url(#a)" d="M1059.89 441.95 844.37 226.42 663.61 45.66c-15.79-15.85-48.67-34.76-76.48-34.76-23.9 0-47.36 4.78-62.57 13.9L190.84 191.66 23.98 539.28c-5.96 12.64-13.9 34.61-13.9 48.67 0 30.35 13.35 61.41 34.76 83.43l166.58 165.38c3.99 4.86 8.66 9.84 14.18 15.38l6.95 6.95 20.86 20.86 180.76 180.76 6.95 6.95h438V879.95h187.71V448.9l-6.94-6.95z" opacity=".2"/></svg>